<svg width="30.732422" height="31.821411" viewBox="0 0 30.7324 31.8214" fill="none" xmlns="http://www.w3.org/2000/svg" xmlns:xlink="http://www.w3.org/1999/xlink">
	<desc>
			Created with Pixso.
	</desc>
	<defs/>
	<path id="Vector" d="M29.6074 0L8.41113 0C7.78906 0 7.28613 0.502197 7.28613 1.125L7.28613 7.875C7.28613 7.96338 7.35938 8.03577 7.44727 8.03577L9.8584 8.03577C9.94629 8.03577 10.0186 7.96338 10.0186 7.875L10.0186 2.73218L28 2.73218L28 29.0892L10.0186 29.0892L10.0186 23.9464C10.0186 23.858 9.94629 23.7858 9.8584 23.7858L7.44727 23.7858C7.35938 23.7858 7.28613 23.858 7.28613 23.9464L7.28613 30.6964C7.28613 31.3192 7.78906 31.8214 8.41113 31.8214L29.6074 31.8214C30.2295 31.8214 30.7324 31.3192 30.7324 30.6964L30.7324 1.125C30.7324 0.502197 30.2295 0 29.6074 0ZM6.42969 11.1134L6.42969 14.5447L22 14.5447L22 17.2767L6.42969 17.2767L6.42969 20.708C6.42969 20.8607 6.25293 20.9451 6.13574 20.8527L0.0693359 16.0514C0.0478516 16.0343 0.0302734 16.0127 0.0185547 15.9879C0.00585938 15.9633 0 15.9362 0 15.9087C0 15.8812 0.00585938 15.8541 0.0185547 15.8295C0.0302734 15.8047 0.0478516 15.7831 0.0693359 15.7661L6.13574 10.9688C6.25684 10.8723 6.42969 10.9607 6.42969 11.1134Z" fill="#262626" fill-opacity="1.000000" fill-rule="evenodd"/>
</svg>
